REM DIRINDEX 1\2,1\3,1\4,1\5\6,1\5\7,1\8
REM DIRNAME folder01,folder02,folder03,folder04,folder05,folder06,folder07,folder08
TITLE ""
FILE "045 【045】Unit3 (0505 hazard_0516 disturb).mp3" MP3
  TRACK 01 AUDIO
    TITLE "0:"
    INDEX 01 00:00:00
  TRACK 02 AUDIO
    TITLE "2:cjc115_1744"
    INDEX 01 00:00:07
  TRACK 03 AUDIO
    TITLE "0:"
    INDEX 01 00:01:15
  TRACK 04 AUDIO
    TITLE "3:cjc115_1745"
    INDEX 01 00:01:26
  TRACK 05 AUDIO
    TITLE "0:"
    INDEX 01 00:04:07
  TRACK 06 AUDIO
    TITLE "4:cjc115_1746"
    INDEX 01 00:04:17
  TRACK 07 AUDIO
    TITLE "0:"
    INDEX 01 00:08:48
  TRACK 08 AUDIO
    TITLE "2:cjc115_1747"
    INDEX 01 00:09:59
  TRACK 09 AUDIO
    TITLE "0:"
    INDEX 01 00:11:09
  TRACK 10 AUDIO
    TITLE "3:cjc115_1748"
    INDEX 01 00:11:15
  TRACK 11 AUDIO
    TITLE "0:"
    INDEX 01 00:14:00
  TRACK 12 AUDIO
    TITLE "4:cjc115_1749"
    INDEX 01 00:14:07
  TRACK 13 AUDIO
    TITLE "0:"
    INDEX 01 00:16:63
  TRACK 14 AUDIO
    TITLE "2:cjc115_1750"
    INDEX 01 00:17:72
  TRACK 15 AUDIO
    TITLE "0:"
    INDEX 01 00:19:18
  TRACK 16 AUDIO
    TITLE "3:cjc115_1751"
    INDEX 01 00:19:36
  TRACK 17 AUDIO
    TITLE "0:"
    INDEX 01 00:20:69
  TRACK 18 AUDIO
    TITLE "4:cjc115_1752"
    INDEX 01 00:21:04
  TRACK 19 AUDIO
    TITLE "0:"
    INDEX 01 00:23:36
  TRACK 20 AUDIO
    TITLE "2:cjc115_1753"
    INDEX 01 00:24:41
  TRACK 21 AUDIO
    TITLE "0:"
    INDEX 01 00:25:74
  TRACK 22 AUDIO
    TITLE "3:cjc115_1754"
    INDEX 01 00:26:09
  TRACK 23 AUDIO
    TITLE "0:"
    INDEX 01 00:29:01
  TRACK 24 AUDIO
    TITLE "4:cjc115_1755"
    INDEX 01 00:29:17
  TRACK 25 AUDIO
    TITLE "0:"
    INDEX 01 00:33:66
  TRACK 26 AUDIO
    TITLE "2:cjc115_1756"
    INDEX 01 00:34:69
  TRACK 27 AUDIO
    TITLE "0:"
    INDEX 01 00:36:15
  TRACK 28 AUDIO
    TITLE "3:cjc115_1757"
    INDEX 01 00:36:23
  TRACK 29 AUDIO
    TITLE "0:"
    INDEX 01 00:38:14
  TRACK 30 AUDIO
    TITLE "4:cjc115_1758"
    INDEX 01 00:38:22
  TRACK 31 AUDIO
    TITLE "0:"
    INDEX 01 00:42:53
  TRACK 32 AUDIO
    TITLE "2:cjc115_1759"
    INDEX 01 00:43:62
  TRACK 33 AUDIO
    TITLE "0:"
    INDEX 01 00:45:06
  TRACK 34 AUDIO
    TITLE "3:cjc115_1760"
    INDEX 01 00:45:14
  TRACK 35 AUDIO
    TITLE "0:"
    INDEX 01 00:47:17
  TRACK 36 AUDIO
    TITLE "4:cjc115_1761"
    INDEX 01 00:47:28
  TRACK 37 AUDIO
    TITLE "0:"
    INDEX 01 00:51:32
  TRACK 38 AUDIO
    TITLE "2:cjc115_1762"
    INDEX 01 00:52:43
  TRACK 39 AUDIO
    TITLE "0:"
    INDEX 01 00:53:39
  TRACK 40 AUDIO
    TITLE "3:cjc115_1763"
    INDEX 01 00:53:49
  TRACK 41 AUDIO
    TITLE "0:"
    INDEX 01 00:55:67
  TRACK 42 AUDIO
    TITLE "4:cjc115_1764"
    INDEX 01 00:56:02
  TRACK 43 AUDIO
    TITLE "0:"
    INDEX 01 00:59:32
  TRACK 44 AUDIO
    TITLE "2:cjc115_1765"
    INDEX 01 01:00:41
  TRACK 45 AUDIO
    TITLE "0:"
    INDEX 01 01:01:62
  TRACK 46 AUDIO
    TITLE "3:cjc115_1766"
    INDEX 01 01:01:70
  TRACK 47 AUDIO
    TITLE "0:"
    INDEX 01 01:04:29
  TRACK 48 AUDIO
    TITLE "4:cjc115_1767"
    INDEX 01 01:04:37
  TRACK 49 AUDIO
    TITLE "0:"
    INDEX 01 01:08:15
  TRACK 50 AUDIO
    TITLE "2:cjc115_1768"
    INDEX 01 01:09:18
  TRACK 51 AUDIO
    TITLE "0:"
    INDEX 01 01:10:33
  TRACK 52 AUDIO
    TITLE "3:cjc115_1769"
    INDEX 01 01:10:41
  TRACK 53 AUDIO
    TITLE "0:"
    INDEX 01 01:12:54
  TRACK 54 AUDIO
    TITLE "4:cjc115_1770"
    INDEX 01 01:12:62
  TRACK 55 AUDIO
    TITLE "0:"
    INDEX 01 01:18:33
  TRACK 56 AUDIO
    TITLE "2:cjc115_1771"
    INDEX 01 01:19:44
  TRACK 57 AUDIO
    TITLE "0:"
    INDEX 01 01:20:63
  TRACK 58 AUDIO
    TITLE "3:cjc115_1772"
    INDEX 01 01:20:71
  TRACK 59 AUDIO
    TITLE "0:"
    INDEX 01 01:22:09
  TRACK 60 AUDIO
    TITLE "4:cjc115_1773"
    INDEX 01 01:22:17
  TRACK 61 AUDIO
    TITLE "0:"
    INDEX 01 01:25:58
  TRACK 62 AUDIO
    TITLE "2:cjc115_1774"
    INDEX 01 01:26:66
  TRACK 63 AUDIO
    TITLE "0:"
    INDEX 01 01:28:12
  TRACK 64 AUDIO
    TITLE "3:cjc115_1775"
    INDEX 01 01:28:24
  TRACK 65 AUDIO
    TITLE "0:"
    INDEX 01 01:30:20
  TRACK 66 AUDIO
    TITLE "4:cjc115_1776"
    INDEX 01 01:30:28
  TRACK 67 AUDIO
    TITLE "0:"
    INDEX 01 01:34:08
  TRACK 68 AUDIO
    TITLE "2:cjc115_1777"
    INDEX 01 01:35:20
  TRACK 69 AUDIO
    TITLE "0:"
    INDEX 01 01:36:39
  TRACK 70 AUDIO
    TITLE "3:cjc115_1778"
    INDEX 01 01:36:48
  TRACK 71 AUDIO
    TITLE "0:"
    INDEX 01 01:39:35
  TRACK 72 AUDIO
    TITLE "4:cjc115_1779"
    INDEX 01 01:39:45
  TRACK 73 AUDIO
    TITLE "0:"
    INDEX 01 01:43:39
